PathFileType	4	(X/Y/Z)	s07c0402.trc
DataRate	CameraRate	NumFrames	NumMarkers	Units	OrigDataRate	OrigDataStartFrame	OrigNumFrames
200	200	4	48	mm	200	0	2000
Frame#	Time	racr			lacr			c7			jug			rlel			rdr			llel			ldr			s2			lic			ric			lasi			rasi			rpsi			lpsi			rgt			lgt			rth1			rth2			rth3			rth4			rlfc			rmfc			rsh1			rsh2			rsh3			rsh4			rlmal			rcal			rtoe			rmt5			lth1			lth2			lth4			lth3			llfc			lmfc			lsh1			lsh2			lsh3			lsh4			llmal			lcal			ltoe			lmt5			SBIKE			LBIKE			RBIKE			
		X1	Y1	Z1	X2	Y2	Z2	X3	Y3	Z3	X4	Y4	Z4	X5	Y5	Z5	X6	Y6	Z6	X7	Y7	Z7	X8	Y8	Z8	X9	Y9	Z9	X10	Y10	Z10	X11	Y11	Z11	X12	Y12	Z12	X13	Y13	Z13	X14	Y14	Z14	X15	Y15	Z15	X16	Y16	Z16	X17	Y17	Z17	X18	Y18	Z18	X19	Y19	Z19	X20	Y20	Z20	X21	Y21	Z21	X22	Y22	Z22	X23	Y23	Z23	X24	Y24	Z24	X25	Y25	Z25	X26	Y26	Z26	X27	Y27	Z27	X28	Y28	Z28	X29	Y29	Z29	X30	Y30	Z30	X31	Y31	Z31	X32	Y32	Z32	X33	Y33	Z33	X34	Y34	Z34	X35	Y35	Z35	X36	Y36	Z36	X37	Y37	Z37	X38	Y38	Z38	X39	Y39	Z39	X40	Y40	Z40	X41	Y41	Z41	X42	Y42	Z42	X43	Y43	Z43	X44	Y44	Z44	X45	Y45	Z45	X46	Y46	Z46	X47	Y47	Z47	X48	Y48	Z48	
0	0.0000	436.514110	1455.156892	-107.986426	414.809011	1442.016764	-378.580637	407.788051	1481.492831	-252.881794	376.032027	1341.281966	-247.113339	484.864000	1139.951490	34.111966	687.832102	934.900273	-56.387779	492.191922	1145.456696	-521.991194	687.999880	927.197522	-452.462409	-139.180458	1204.897021	-250.943651	24.174409	1253.870340	-393.799899	32.134609	1244.504948	-100.260785	56.857767	1172.813057	-367.359836	43.919478	1187.461866	-119.468115	-113.551778	1244.014612	-198.370209	-98.869198	1252.892117	-306.731074	-28.381582	1123.344960	-54.921500	-35.184308	1095.820137	-421.305998	109.683598	1062.718596	-49.272010	195.478377	1045.498540	-57.758029	262.363262	992.432695	-53.578939	208.755535	1075.450611	-75.085954	381.450393	910.786332	-86.319387	379.575513	897.643687	-190.442341	333.920580	774.997115	-65.859888	322.018526	688.606744	-87.314300	272.434996	617.534675	-84.462882	337.415330	687.830935	-124.188952	215.501761	494.545480	-88.765348	146.348546	456.492532	-116.935037	434.915846	424.472123	-130.554823	356.629389	394.746449	-59.586553	24.560406	988.673597	-428.071534	93.121584	935.035163	-434.673778	122.917992	954.918209	-427.165758	126.244049	850.828890	-429.860022	216.425478	693.793031	-397.847580	207.265185	679.543454	-300.546509	122.153837	575.468009	-415.826446	84.042180	501.471514	-393.001257	11.749352	448.151884	-400.752853	86.852194	504.235882	-351.750612	-80.464623	348.824447	-396.162277	-158.776249	321.997143	-362.338171	123.248580	257.046825	-359.570350	39.911784	245.653314	-423.592672	-263.896071	969.343810	-238.390822	-83.439913	79.184698	-437.796564	-83.271439	78.652417	-40.077723	
1	0.0050	436.504910	1455.146265	-107.987122	414.829993	1442.039739	-378.565907	407.787225	1481.510863	-252.860869	376.012072	1341.279514	-247.090046	484.892085	1139.921200	34.073748	687.820245	934.882514	-56.381405	492.223597	1145.462555	-521.966862	688.028573	927.214091	-452.508276	-139.139121	1204.891009	-250.958834	24.166134	1253.843726	-393.800191	32.128166	1244.537929	-100.258646	56.860308	1172.746942	-367.367367	43.924989	1187.505848	-119.488789	-113.708869	1243.845548	-198.394218	-98.850857	1252.907571	-306.748089	-28.372451	1123.360077	-54.911290	-35.180334	1095.824875	-421.296010	109.738155	1062.775557	-49.313170	195.520379	1045.578428	-57.825658	262.425426	992.549638	-53.658231	208.820600	1075.612135	-75.083432	381.520048	910.961958	-86.389663	379.614681	897.785460	-190.522641	333.932245	775.204735	-65.953474	322.005312	688.755858	-87.368662	272.384630	617.776507	-84.492220	337.394761	687.990250	-124.236376	215.394995	494.785569	-88.798074	146.276285	456.711442	-116.958623	434.820837	424.678994	-130.558581	356.534380	394.939472	-59.586636	24.569953	988.653347	-428.070153	93.128796	935.019244	-434.672674	122.927638	954.896718	-427.172516	126.248344	850.805866	-429.879737	216.404929	693.781071	-397.859437	207.234882	679.502247	-300.529090	122.182457	575.417584	-415.839621	84.107269	501.408784	-393.021197	11.838874	448.036883	-400.842193	86.954108	504.177662	-351.758993	-80.343181	348.688413	-396.163989	-158.636681	321.915717	-362.363117	123.374377	256.827869	-359.569535	40.007204	245.483091	-423.599910	-263.904653	969.354947	-238.400111	-83.438430	79.168721	-437.771553	-83.303236	78.697616	-40.082750	
2	0.0100	436.508550	1455.163604	-107.974432	414.825643	1442.064352	-378.558233	407.786110	1481.516364	-252.860066	376.009632	1341.324120	-247.085063	484.898355	1139.912263	34.071104	687.831602	934.871810	-56.377618	492.252661	1145.473531	-521.943513	688.030269	927.204406	-452.512482	-139.146575	1204.892288	-250.953041	24.155732	1253.851236	-393.781651	32.121648	1244.549705	-100.252890	56.866123	1172.784211	-367.375838	43.911463	1187.526262	-119.485959	-113.690467	1243.840577	-198.427436	-98.842925	1252.892635	-306.740232	-28.382682	1123.382393	-54.913661	-35.165249	1095.822889	-421.287125	109.753515	1062.843238	-49.319963	195.552586	1045.642028	-57.862042	262.472696	992.691271	-53.734205	208.839772	1075.699473	-75.126414	381.575086	911.130802	-86.466762	379.652018	897.930425	-190.601246	333.957867	775.405265	-66.023518	321.982859	688.908405	-87.403188	272.345838	617.989981	-84.531493	337.383306	688.168572	-124.293457	215.321946	494.975310	-88.827238	146.211265	456.946547	-116.986351	434.732409	424.877166	-130.571730	356.443121	395.092135	-59.588298	24.576444	988.643599	-428.068366	93.127757	934.996445	-434.675999	122.929297	954.873768	-427.172558	126.235541	850.778763	-429.861754	216.388298	693.740900	-397.842111	207.210558	679.461969	-300.522436	122.209003	575.346779	-415.834028	84.160371	501.330070	-393.031185	11.896925	447.952477	-400.829469	86.984676	504.092227	-351.754484	-80.223003	348.541759	-396.180895	-158.516177	321.771045	-362.349678	123.476296	256.617823	-359.565895	40.133317	245.284849	-423.558743	-263.900792	969.351103	-238.393882	-83.427077	79.163158	-437.761773	-83.349857	78.787572	-40.050987	
3	0.0150	436.506110	1455.191455	-107.948128	414.822903	1442.138500	-378.540920	407.624951	1481.211610	-252.537879	376.007223	1341.368725	-247.080097	484.647496	1140.568173	34.487924	687.821522	934.862947	-56.385047	492.278140	1145.494386	-521.921086	688.331505	927.827260	-453.250271	-139.593602	1204.989741	-250.766265	22.972760	1252.960589	-391.737538	31.979302	1245.104120	-100.694284	56.871150	1172.760581	-367.358473	43.909677	1187.549180	-119.489126	-113.960903	1243.276852	-198.561826	-98.827625	1252.887552	-306.748046	-28.074228	1123.183442	-55.008674	-35.151188	1095.809486	-421.296879	109.689860	1062.729882	-49.120361	195.598325	1045.728996	-57.929803	262.415593	992.802202	-53.871282	208.764786	1075.522979	-75.526407	381.650244	911.307580	-86.568309	379.703013	898.080861	-190.700227	333.979186	775.573891	-66.073739	321.853948	688.994107	-87.548440	272.318988	618.090851	-84.521418	337.457355	688.276659	-124.403729	214.828154	495.790836	-88.409575	146.148146	457.294631	-117.062403	434.425544	425.604421	-130.374718	356.253461	395.145578	-59.721620	24.590707	988.631480	-428.053565	93.428864	933.829057	-433.406066	122.919151	954.908506	-427.214305	126.011322	851.013958	-429.652096	216.368989	693.705120	-397.825242	206.540794	680.172706	-299.811669	122.221799	575.289491	-415.855988	84.327906	500.922148	-393.167561	11.819095	447.979151	-400.829307	87.449144	503.824166	-351.540846	-80.134284	348.754002	-396.702267	-158.410632	321.638674	-362.360431	123.578652	256.422111	-359.553950	40.226090	245.100190	-423.576687	-264.014362	969.377483	-238.800651	-83.437932	79.171591	-437.766157	-83.342794	78.769684	-40.052281	
